<svg width="50" height="51" viewBox="0 0 50 51" fill="none" xmlns="http://www.w3.org/2000/svg">
<path d="M10.6533 7.41064L13.9248 10.4812L11.7275 12.5436L8.45605 9.47297L10.6533 7.41064ZM39.3643 7.41064L41.5615 9.47297L38.29 12.5436L36.0928 10.4812L39.3643 7.41064ZM25.0088 8.32723C32.7188 8.25849 39.0713 14.2334 39.0713 21.4803C39.0713 25.4482 37.1195 28.9034 34.5303 31.3337C32.5957 33.0196 31.4053 35.1864 31.4053 37.3373V39.0788H31.2588V44.945H27.6943C27.1521 45.8204 26.1597 46.4116 25.0088 46.4116C23.8579 46.4116 22.8655 45.8204 22.3232 44.945H18.7588V36.1457C18.4424 34.5078 17.5181 32.9019 16.0244 31.7003C12.5354 28.9168 10.4414 24.5942 11.1416 19.8304C12.0183 13.9067 17.0625 9.10065 23.3975 8.41889C23.4145 8.41706 23.4293 8.42073 23.4463 8.41889C23.9707 8.35913 24.4947 8.33182 25.0088 8.32723ZM25.0088 11.2603C24.6063 11.2658 24.1997 11.3037 23.7881 11.352C18.8953 11.8622 14.9014 15.5765 14.2178 20.1971C13.668 23.9392 15.3142 27.2521 18.0752 29.4546C20.2441 31.1996 21.3945 33.6318 21.7373 36.1457H28.5732C28.9412 33.5177 30.2829 31.1103 32.3818 29.2713L32.333 29.2255C34.4312 27.2561 35.9463 24.5518 35.9463 21.4803C35.9463 15.818 31.0475 11.1798 25.0088 11.2603ZM3.13379 21.4803H7.82129V24.4134H3.13379V21.4803ZM42.1963 21.4803H46.8838V24.4134H42.1963V21.4803ZM11.7275 33.3501L13.9248 35.4125L10.6533 38.4831L8.45605 36.4207L11.7275 33.3501ZM38.29 33.3501L41.5615 36.4207L39.3643 38.4831L36.0928 35.4125L38.29 33.3501ZM21.8838 39.0788V42.0119H28.1338V39.0788H21.8838Z" fill="#3C5ABE"/>
</svg>
